<svg width="157" height="36" viewBox="0 0 157 36" fill="none" xmlns="http://www.w3.org/2000/svg">
<rect x="0.689697" y="0.75" width="155.5" height="34.5" rx="3.75" fill="white"/>
<path d="M15.679 23.5H9.13013V22.5498L11.803 19.8359C12.2997 19.3346 12.7167 18.888 13.054 18.4961C13.3958 18.1042 13.6555 17.7191 13.8333 17.3408C14.011 16.958 14.0999 16.5387 14.0999 16.083C14.0999 15.5179 13.9312 15.0872 13.594 14.791C13.2613 14.4902 12.8215 14.3398 12.2747 14.3398C11.7961 14.3398 11.3723 14.4219 11.0032 14.5859C10.634 14.75 10.2558 14.9824 9.86841 15.2832L9.26001 14.5176C9.52433 14.2943 9.81144 14.096 10.1213 13.9229C10.4358 13.7497 10.7708 13.613 11.1262 13.5127C11.4862 13.4124 11.8691 13.3623 12.2747 13.3623C12.8899 13.3623 13.4208 13.4694 13.8674 13.6836C14.314 13.8978 14.6581 14.2031 14.8997 14.5996C15.1458 14.9961 15.2688 15.4678 15.2688 16.0146C15.2688 16.5433 15.164 17.0355 14.9543 17.4912C14.7447 17.9424 14.4508 18.3913 14.0725 18.8379C13.6943 19.2799 13.2522 19.7493 12.7463 20.2461L10.5725 22.4131V22.4609H15.679V23.5ZM23.0454 18.4893C23.0454 19.3005 22.9838 20.0251 22.8608 20.6631C22.7377 21.3011 22.5441 21.8411 22.2797 22.2832C22.0154 22.7253 21.6736 23.0625 21.2543 23.2949C20.8351 23.5228 20.3315 23.6367 19.7436 23.6367C19.0008 23.6367 18.3855 23.4339 17.8979 23.0283C17.4148 22.6227 17.0525 22.0371 16.811 21.2715C16.574 20.5013 16.4555 19.5739 16.4555 18.4893C16.4555 17.4229 16.5626 16.5068 16.7768 15.7412C16.9956 14.971 17.3465 14.3809 17.8295 13.9707C18.3126 13.556 18.9506 13.3486 19.7436 13.3486C20.4956 13.3486 21.1153 13.5537 21.603 13.9639C22.0906 14.3695 22.4529 14.9574 22.6899 15.7275C22.9269 16.4932 23.0454 17.4137 23.0454 18.4893ZM17.5971 18.4893C17.5971 19.4189 17.6678 20.1937 17.809 20.8135C17.9503 21.4333 18.1782 21.8981 18.4926 22.208C18.8116 22.5133 19.2286 22.666 19.7436 22.666C20.2586 22.666 20.6733 22.5133 20.9877 22.208C21.3068 21.9027 21.5369 21.4401 21.6782 20.8203C21.824 20.2005 21.8969 19.4235 21.8969 18.4893C21.8969 17.5732 21.8263 16.8076 21.685 16.1924C21.5437 15.5726 21.3159 15.1077 21.0014 14.7979C20.687 14.4834 20.2677 14.3262 19.7436 14.3262C19.2195 14.3262 18.8002 14.4834 18.4858 14.7979C18.1713 15.1077 17.9435 15.5726 17.8022 16.1924C17.6655 16.8076 17.5971 17.5732 17.5971 18.4893ZM33.6356 23.5L32.4051 20.3281H28.3993L27.1756 23.5H25.9999L29.91 13.4648H30.9559L34.8387 23.5H33.6356ZM32.0565 19.2959L30.8875 16.1445C30.8602 16.0625 30.8146 15.9281 30.7508 15.7412C30.6916 15.5544 30.6301 15.3607 30.5663 15.1602C30.5025 14.9596 30.45 14.7979 30.409 14.6748C30.3635 14.8617 30.3133 15.0485 30.2586 15.2354C30.2085 15.4176 30.1584 15.5885 30.1083 15.748C30.0581 15.903 30.0148 16.0352 29.9784 16.1445L28.7889 19.2959H32.0565ZM41.542 16.0078V23.5H40.6124L40.4483 22.4473H40.3868C40.2318 22.707 40.0313 22.9258 39.7852 23.1035C39.5391 23.2812 39.2611 23.4134 38.9512 23.5C38.6459 23.5911 38.32 23.6367 37.9737 23.6367C37.3812 23.6367 36.8845 23.541 36.4834 23.3496C36.0824 23.1582 35.7793 22.862 35.5743 22.4609C35.3737 22.0599 35.2735 21.5449 35.2735 20.916V16.0078H36.4219V20.834C36.4219 21.4583 36.5632 21.9255 36.8458 22.2354C37.1283 22.5407 37.559 22.6934 38.1377 22.6934C38.6937 22.6934 39.1358 22.5885 39.4639 22.3789C39.7966 22.1693 40.0359 21.8617 40.1817 21.4561C40.3275 21.0459 40.4004 20.5446 40.4004 19.9521V16.0078H41.542ZM45.3333 26.8633C44.3489 26.8633 43.5901 26.6787 43.0569 26.3096C42.5237 25.945 42.2571 25.4323 42.2571 24.7715C42.2571 24.3021 42.4052 23.901 42.7014 23.5684C43.0022 23.2357 43.4169 23.0146 43.9456 22.9053C43.7496 22.8141 43.581 22.6774 43.4397 22.4951C43.303 22.3128 43.2346 22.1032 43.2346 21.8662C43.2346 21.5928 43.3098 21.3535 43.4602 21.1484C43.6152 20.9388 43.8499 20.7383 44.1643 20.5469C43.7724 20.3874 43.4534 20.1185 43.2073 19.7402C42.9657 19.3574 42.845 18.9131 42.845 18.4072C42.845 17.8695 42.9566 17.4115 43.1799 17.0332C43.4032 16.6504 43.7268 16.3587 44.1506 16.1582C44.5745 15.9577 45.0872 15.8574 45.6887 15.8574C45.8209 15.8574 45.953 15.8643 46.0852 15.8779C46.2219 15.887 46.3518 15.903 46.4749 15.9258C46.5979 15.944 46.705 15.9668 46.7961 15.9941H49.3665V16.7256L47.9856 16.8965C48.1223 17.0742 48.2362 17.2884 48.3274 17.5391C48.4185 17.7897 48.4641 18.0677 48.4641 18.373C48.4641 19.1204 48.2112 19.7152 47.7053 20.1572C47.1995 20.5947 46.5045 20.8135 45.6204 20.8135C45.4107 20.8135 45.1965 20.7952 44.9778 20.7588C44.7545 20.8818 44.5836 21.0186 44.4651 21.1689C44.3512 21.3193 44.2942 21.4925 44.2942 21.6885C44.2942 21.8343 44.3375 21.9505 44.4241 22.0371C44.5152 22.1237 44.6451 22.1875 44.8137 22.2285C44.9823 22.265 45.1851 22.2832 45.4221 22.2832H46.7415C47.5572 22.2832 48.1816 22.4541 48.6145 22.7959C49.052 23.1377 49.2708 23.6367 49.2708 24.293C49.2708 25.1224 48.9335 25.7581 48.259 26.2002C47.5846 26.6423 46.6093 26.8633 45.3333 26.8633ZM45.3674 25.9746C45.9872 25.9746 46.4999 25.9108 46.9055 25.7832C47.3157 25.6602 47.621 25.4801 47.8215 25.2432C48.0266 25.0107 48.1292 24.7327 48.1292 24.4092C48.1292 24.1084 48.0608 23.8805 47.9241 23.7256C47.7874 23.5752 47.5868 23.4749 47.3225 23.4248C47.0582 23.3701 46.7346 23.3428 46.3518 23.3428H45.053C44.7157 23.3428 44.4218 23.3952 44.1711 23.5C43.9205 23.6048 43.7268 23.7598 43.5901 23.9648C43.4579 24.1699 43.3918 24.4251 43.3918 24.7305C43.3918 25.1361 43.5627 25.4437 43.9045 25.6533C44.2463 25.8675 44.734 25.9746 45.3674 25.9746ZM45.6614 19.9863C46.2037 19.9863 46.6116 19.8496 46.885 19.5762C47.1584 19.3027 47.2952 18.904 47.2952 18.3799C47.2952 17.8193 47.1562 17.4001 46.8782 17.1221C46.6002 16.8395 46.19 16.6982 45.6477 16.6982C45.1282 16.6982 44.7271 16.8441 44.4446 17.1357C44.1666 17.4229 44.0276 17.8444 44.0276 18.4004C44.0276 18.9108 44.1689 19.3027 44.4514 19.5762C44.734 19.8496 45.1373 19.9863 45.6614 19.9863Z" fill="#008CBA"/>
<path d="M68.773 11.2H67.9397V9.5H66.273V11.2H59.6064V9.5H57.9397V11.2H57.1064C56.1814 11.2 55.448 11.965 55.448 12.9L55.4397 24.8C55.4397 25.735 56.1814 26.5 57.1064 26.5H68.773C69.6897 26.5 70.4397 25.735 70.4397 24.8V12.9C70.4397 11.965 69.6897 11.2 68.773 11.2ZM68.773 24.8H57.1064V16.3H68.773V24.8ZM68.773 14.6H57.1064V12.9H68.773V14.6ZM60.4397 19.7H58.773V18H60.4397V19.7ZM63.773 19.7H62.1064V18H63.773V19.7ZM67.1064 19.7H65.4397V18H67.1064V19.7ZM60.4397 23.1H58.773V21.4H60.4397V23.1ZM63.773 23.1H62.1064V21.4H63.773V23.1ZM67.1064 23.1H65.4397V21.4H67.1064V23.1Z" fill="#008CBA"/>
<path d="M78.4397 9.5L78.4397 26.5" stroke="#008CBA"/>
<path d="M93.679 23.5H87.1301V22.5498L89.803 19.8359C90.2997 19.3346 90.7167 18.888 91.054 18.4961C91.3958 18.1042 91.6555 17.7191 91.8333 17.3408C92.011 16.958 92.0999 16.5387 92.0999 16.083C92.0999 15.5179 91.9312 15.0872 91.594 14.791C91.2613 14.4902 90.8215 14.3398 90.2747 14.3398C89.7961 14.3398 89.3723 14.4219 89.0032 14.5859C88.634 14.75 88.2558 14.9824 87.8684 15.2832L87.26 14.5176C87.5243 14.2943 87.8114 14.096 88.1213 13.9229C88.4358 13.7497 88.7708 13.613 89.1262 13.5127C89.4862 13.4124 89.8691 13.3623 90.2747 13.3623C90.8899 13.3623 91.4208 13.4694 91.8674 13.6836C92.314 13.8978 92.6581 14.2031 92.8997 14.5996C93.1458 14.9961 93.2688 15.4678 93.2688 16.0146C93.2688 16.5433 93.164 17.0355 92.9543 17.4912C92.7447 17.9424 92.4508 18.3913 92.0725 18.8379C91.6943 19.2799 91.2522 19.7493 90.7463 20.2461L88.5725 22.4131V22.4609H93.679V23.5ZM98.6665 23.5H97.559V16.418C97.559 16.1491 97.559 15.9189 97.559 15.7275C97.5636 15.5316 97.5681 15.3538 97.5727 15.1943C97.5818 15.0303 97.5932 14.8639 97.6069 14.6953C97.4656 14.8411 97.3334 14.9665 97.2104 15.0713C97.0874 15.1715 96.9347 15.2969 96.7524 15.4473L95.6108 16.3633L95.0161 15.5908L97.7231 13.5059H98.6665V23.5ZM111.636 23.5L110.405 20.3281H106.399L105.176 23.5H104L107.91 13.4648H108.956L112.839 23.5H111.636ZM110.056 19.2959L108.888 16.1445C108.86 16.0625 108.815 15.9281 108.751 15.7412C108.692 15.5544 108.63 15.3607 108.566 15.1602C108.502 14.9596 108.45 14.7979 108.409 14.6748C108.363 14.8617 108.313 15.0485 108.259 15.2354C108.209 15.4176 108.158 15.5885 108.108 15.748C108.058 15.903 108.015 16.0352 107.978 16.1445L106.789 19.2959H110.056ZM119.542 16.0078V23.5H118.612L118.448 22.4473H118.387C118.232 22.707 118.031 22.9258 117.785 23.1035C117.539 23.2812 117.261 23.4134 116.951 23.5C116.646 23.5911 116.32 23.6367 115.974 23.6367C115.381 23.6367 114.884 23.541 114.483 23.3496C114.082 23.1582 113.779 22.862 113.574 22.4609C113.374 22.0599 113.273 21.5449 113.273 20.916V16.0078H114.422V20.834C114.422 21.4583 114.563 21.9255 114.846 22.2354C115.128 22.5407 115.559 22.6934 116.138 22.6934C116.694 22.6934 117.136 22.5885 117.464 22.3789C117.797 22.1693 118.036 21.8617 118.182 21.4561C118.328 21.0459 118.4 20.5446 118.4 19.9521V16.0078H119.542ZM123.333 26.8633C122.349 26.8633 121.59 26.6787 121.057 26.3096C120.524 25.945 120.257 25.4323 120.257 24.7715C120.257 24.3021 120.405 23.901 120.701 23.5684C121.002 23.2357 121.417 23.0146 121.946 22.9053C121.75 22.8141 121.581 22.6774 121.44 22.4951C121.303 22.3128 121.235 22.1032 121.235 21.8662C121.235 21.5928 121.31 21.3535 121.46 21.1484C121.615 20.9388 121.85 20.7383 122.164 20.5469C121.772 20.3874 121.453 20.1185 121.207 19.7402C120.966 19.3574 120.845 18.9131 120.845 18.4072C120.845 17.8695 120.957 17.4115 121.18 17.0332C121.403 16.6504 121.727 16.3587 122.151 16.1582C122.574 15.9577 123.087 15.8574 123.689 15.8574C123.821 15.8574 123.953 15.8643 124.085 15.8779C124.222 15.887 124.352 15.903 124.475 15.9258C124.598 15.944 124.705 15.9668 124.796 15.9941H127.366V16.7256L125.986 16.8965C126.122 17.0742 126.236 17.2884 126.327 17.5391C126.419 17.7897 126.464 18.0677 126.464 18.373C126.464 19.1204 126.211 19.7152 125.705 20.1572C125.199 20.5947 124.504 20.8135 123.62 20.8135C123.411 20.8135 123.197 20.7952 122.978 20.7588C122.754 20.8818 122.584 21.0186 122.465 21.1689C122.351 21.3193 122.294 21.4925 122.294 21.6885C122.294 21.8343 122.337 21.9505 122.424 22.0371C122.515 22.1237 122.645 22.1875 122.814 22.2285C122.982 22.265 123.185 22.2832 123.422 22.2832H124.741C125.557 22.2832 126.182 22.4541 126.615 22.7959C127.052 23.1377 127.271 23.6367 127.271 24.293C127.271 25.1224 126.934 25.7581 126.259 26.2002C125.585 26.6423 124.609 26.8633 123.333 26.8633ZM123.367 25.9746C123.987 25.9746 124.5 25.9108 124.906 25.7832C125.316 25.6602 125.621 25.4801 125.822 25.2432C126.027 25.0107 126.129 24.7327 126.129 24.4092C126.129 24.1084 126.061 23.8805 125.924 23.7256C125.787 23.5752 125.587 23.4749 125.323 23.4248C125.058 23.3701 124.735 23.3428 124.352 23.3428H123.053C122.716 23.3428 122.422 23.3952 122.171 23.5C121.92 23.6048 121.727 23.7598 121.59 23.9648C121.458 24.1699 121.392 24.4251 121.392 24.7305C121.392 25.1361 121.563 25.4437 121.905 25.6533C122.246 25.8675 122.734 25.9746 123.367 25.9746ZM123.661 19.9863C124.204 19.9863 124.612 19.8496 124.885 19.5762C125.158 19.3027 125.295 18.904 125.295 18.3799C125.295 17.8193 125.156 17.4001 124.878 17.1221C124.6 16.8395 124.19 16.6982 123.648 16.6982C123.128 16.6982 122.727 16.8441 122.445 17.1357C122.167 17.4229 122.028 17.8444 122.028 18.4004C122.028 18.9108 122.169 19.3027 122.451 19.5762C122.734 19.8496 123.137 19.9863 123.661 19.9863Z" fill="#008CBA"/>
<path d="M146.773 11.2H145.94V9.5H144.273V11.2H137.606V9.5H135.94V11.2H135.106C134.181 11.2 133.448 11.965 133.448 12.9L133.44 24.8C133.44 25.735 134.181 26.5 135.106 26.5H146.773C147.69 26.5 148.44 25.735 148.44 24.8V12.9C148.44 11.965 147.69 11.2 146.773 11.2ZM146.773 24.8H135.106V16.3H146.773V24.8ZM146.773 14.6H135.106V12.9H146.773V14.6ZM138.44 19.7H136.773V18H138.44V19.7ZM141.773 19.7H140.106V18H141.773V19.7ZM145.106 19.7H143.44V18H145.106V19.7ZM138.44 23.1H136.773V21.4H138.44V23.1ZM141.773 23.1H140.106V21.4H141.773V23.1ZM145.106 23.1H143.44V21.4H145.106V23.1Z" fill="#008CBA"/>
<rect x="0.689697" y="0.75" width="155.5" height="34.5" rx="3.75" stroke="#008CBA" stroke-width="0.5"/>
</svg>
