<svg width="18" height="17" viewBox="0 0 18 17" fill="none" xmlns="http://www.w3.org/2000/svg">
<path d="M8.99996 0.166626C4.39996 0.166626 0.666626 3.89996 0.666626 8.49996C0.666626 13.1 4.39996 16.8333 8.99996 16.8333C13.6 16.8333 17.3333 13.1 17.3333 8.49996C17.3333 3.89996 13.6 0.166626 8.99996 0.166626ZM8.99996 15.1666C5.32496 15.1666 2.33329 12.175 2.33329 8.49996C2.33329 4.82496 5.32496 1.83329 8.99996 1.83329C12.675 1.83329 15.6666 4.82496 15.6666 8.49996C15.6666 12.175 12.675 15.1666 8.99996 15.1666ZM12.825 4.81663L7.33329 10.3083L5.17496 8.15829L3.99996 9.33329L7.33329 12.6666L14 5.99996L12.825 4.81663Z" fill="white"/>
</svg>
