<svg width="189" height="24" viewBox="0 0 189 24" fill="none" xmlns="http://www.w3.org/2000/svg">
<rect x="1" y="0.5" width="187" height="23" rx="3.5" fill="#008CBA"/>
<path d="M67.6663 13.6012H67.1053L66.9065 13.4095C67.6024 12.6 68.0213 11.5491 68.0213 10.4059C68.0213 7.85676 65.955 5.79047 63.4059 5.79047C60.8568 5.79047 58.7905 7.85676 58.7905 10.4059C58.7905 12.955 60.8568 15.0213 63.4059 15.0213C64.5491 15.0213 65.6 14.6024 66.4095 13.9065L66.6012 14.1053V14.6663L70.1515 18.2095L71.2095 17.1515L67.6663 13.6012ZM63.4059 13.6012C61.6378 13.6012 60.2106 12.174 60.2106 10.4059C60.2106 8.63783 61.6378 7.2106 63.4059 7.2106C65.174 7.2106 66.6012 8.63783 66.6012 10.4059C66.6012 12.174 65.174 13.6012 63.4059 13.6012Z" fill="white"/>
<path d="M76.0235 8.432V15.572H77.7455C79.0149 15.572 79.9155 15.2267 80.4475 14.536C80.8675 13.976 81.0775 13.1313 81.0775 12.002C81.0775 10.8727 80.8675 10.028 80.4475 9.468C79.9155 8.77733 79.0149 8.432 77.7455 8.432H76.0235ZM74.2735 17V7.004H78.4175C79.8829 7.004 81.0029 7.494 81.7775 8.474C82.4775 9.35133 82.8275 10.5273 82.8275 12.002C82.8275 13.4767 82.4775 14.6527 81.7775 15.53C81.0029 16.51 79.8829 17 78.4175 17H74.2735ZM84.195 17V9.762H85.791V17H84.195ZM84.195 8.516V7.004H85.791V8.516H84.195ZM87.138 14.676H88.734C88.8087 15.516 89.3547 15.936 90.372 15.936C91.4733 15.936 92.01 15.6187 91.982 14.984C91.9633 14.536 91.5433 14.214 90.722 14.018C89.35 13.682 88.608 13.486 88.496 13.43C87.6933 13.0753 87.292 12.478 87.292 11.638C87.292 10.9193 87.6327 10.378 88.314 10.014C88.8553 9.71533 89.5227 9.566 90.316 9.566C91.128 9.566 91.7953 9.734 92.318 10.07C92.906 10.462 93.2467 11.036 93.34 11.792H91.674C91.5527 11.148 91.0627 10.826 90.204 10.826C89.3267 10.826 88.888 11.0733 88.888 11.568C88.888 11.904 89.1353 12.1607 89.63 12.338C89.7233 12.3753 90.26 12.506 91.24 12.73C91.968 12.898 92.5047 13.1033 92.85 13.346C93.3353 13.7007 93.578 14.2 93.578 14.844C93.578 15.6373 93.228 16.244 92.528 16.664C91.94 17.0187 91.212 17.196 90.344 17.196C89.392 17.196 88.636 16.9907 88.076 16.58C87.46 16.132 87.1473 15.4973 87.138 14.676ZM101.272 12.184H99.6758C99.5451 11.2787 98.9944 10.826 98.0238 10.826C97.4918 10.826 97.0578 10.9893 96.7218 11.316C96.2644 11.764 96.0358 12.478 96.0358 13.458C96.0358 14.1393 96.1804 14.704 96.4698 15.152C96.8151 15.6747 97.3098 15.936 97.9538 15.936C98.4204 15.936 98.8031 15.7913 99.1018 15.502C99.4098 15.2033 99.6011 14.7973 99.6758 14.284H101.272C100.964 16.2253 99.8578 17.196 97.9538 17.196C96.8524 17.196 95.9844 16.8367 95.3498 16.118C94.7431 15.446 94.4398 14.5593 94.4398 13.458C94.4398 12.31 94.7384 11.386 95.3358 10.686C95.9704 9.93933 96.8618 9.566 98.0098 9.566C98.8964 9.566 99.6291 9.78067 100.208 10.21C100.842 10.6767 101.197 11.3347 101.272 12.184ZM105.887 15.936C106.559 15.936 107.082 15.6653 107.455 15.124C107.782 14.6573 107.945 14.074 107.945 13.374C107.945 12.6833 107.782 12.1047 107.455 11.638C107.082 11.0967 106.559 10.826 105.887 10.826C105.215 10.826 104.692 11.0967 104.319 11.638C103.992 12.1047 103.829 12.6833 103.829 13.374C103.829 14.074 103.992 14.6573 104.319 15.124C104.692 15.6653 105.215 15.936 105.887 15.936ZM105.887 17.196C104.748 17.196 103.848 16.8367 103.185 16.118C102.55 15.4273 102.233 14.5127 102.233 13.374C102.233 12.2447 102.555 11.33 103.199 10.63C103.852 9.92067 104.748 9.566 105.887 9.566C107.026 9.566 107.926 9.92533 108.589 10.644C109.224 11.3347 109.541 12.2447 109.541 13.374C109.541 14.5127 109.224 15.4273 108.589 16.118C107.926 16.8367 107.026 17.196 105.887 17.196ZM112.786 17L110.154 9.762H111.89L113.724 15.32H113.752L115.516 9.762H117.168L114.578 17H112.786ZM124.694 13.794H119.374C119.374 14.4007 119.532 14.9 119.85 15.292C120.195 15.7213 120.685 15.936 121.32 15.936C122.216 15.936 122.804 15.5347 123.084 14.732H124.596C124.428 15.5067 124.04 16.1133 123.434 16.552C122.836 16.9813 122.132 17.196 121.32 17.196C120.209 17.196 119.341 16.846 118.716 16.146C118.09 15.446 117.778 14.5267 117.778 13.388C117.778 12.324 118.09 11.428 118.716 10.7C119.378 9.944 120.232 9.566 121.278 9.566C122.295 9.566 123.13 9.93933 123.784 10.686C124.409 11.386 124.722 12.2447 124.722 13.262C124.722 13.4393 124.712 13.6167 124.694 13.794ZM119.374 12.744H123.098C123.07 12.212 122.888 11.7593 122.552 11.386C122.225 11.0127 121.8 10.826 121.278 10.826C120.736 10.826 120.288 11.008 119.934 11.372C119.579 11.736 119.392 12.1933 119.374 12.744ZM125.907 17V9.762H127.405V11.162H127.433C127.526 10.7607 127.783 10.3967 128.203 10.07C128.623 9.734 129.071 9.566 129.547 9.566C129.668 9.566 129.869 9.58 130.149 9.608V11.148C129.776 11.1013 129.547 11.078 129.463 11.078C128.894 11.078 128.432 11.2927 128.077 11.722C127.694 12.17 127.503 12.7813 127.503 13.556V17H125.907Z" fill="white"/>
<rect x="1" y="0.5" width="187" height="23" rx="3.5" stroke="white"/>
</svg>
