<svg width="98" height="46" viewBox="0 0 98 46" fill="none" xmlns="http://www.w3.org/2000/svg">
<g filter="url(#filter0_ddi_133_3355)">
<rect x="5.5" y="1" width="87" height="36" rx="4" fill="#FFC64F"/>
<path d="M19.5 20C20.6 20 21.5 19.1 21.5 18C21.5 16.9 20.6 16 19.5 16C18.4 16 17.5 16.9 17.5 18C17.5 19.1 18.4 20 19.5 20ZM20.63 21.1C20.26 21.04 19.89 21 19.5 21C18.51 21 17.57 21.21 16.72 21.58C15.98 21.9 15.5 22.62 15.5 23.43V25H20V23.39C20 22.56 20.23 21.78 20.63 21.1ZM35.5 20C36.6 20 37.5 19.1 37.5 18C37.5 16.9 36.6 16 35.5 16C34.4 16 33.5 16.9 33.5 18C33.5 19.1 34.4 20 35.5 20ZM39.5 23.43C39.5 22.62 39.02 21.9 38.28 21.58C37.43 21.21 36.49 21 35.5 21C35.11 21 34.74 21.04 34.37 21.1C34.77 21.78 35 22.56 35 23.39V25H39.5V23.43ZM31.74 20.65C30.57 20.13 29.13 19.75 27.5 19.75C25.87 19.75 24.43 20.14 23.26 20.65C22.18 21.13 21.5 22.21 21.5 23.39V25H33.5V23.39C33.5 22.21 32.82 21.13 31.74 20.65ZM23.57 23C23.66 22.77 23.7 22.61 24.48 22.31C25.45 21.93 26.47 21.75 27.5 21.75C28.53 21.75 29.55 21.93 30.52 22.31C31.29 22.61 31.33 22.77 31.43 23H23.57ZM27.5 15C28.05 15 28.5 15.45 28.5 16C28.5 16.55 28.05 17 27.5 17C26.95 17 26.5 16.55 26.5 16C26.5 15.45 26.95 15 27.5 15ZM27.5 13C25.84 13 24.5 14.34 24.5 16C24.5 17.66 25.84 19 27.5 19C29.16 19 30.5 17.66 30.5 16C30.5 14.34 29.16 13 27.5 13Z" fill="#C9960C"/>
<path d="M53.286 18.736V24H52.166L51.9 22.824C51.4427 23.3467 50.9807 23.7153 50.514 23.93C50.0567 24.1353 49.5153 24.238 48.89 24.238C47.434 24.238 46.2627 23.72 45.376 22.684C44.5267 21.704 44.102 20.4767 44.102 19.002C44.102 17.5273 44.5267 16.2953 45.376 15.306C46.2627 14.2793 47.434 13.766 48.89 13.766C50.0287 13.766 50.9807 14.0553 51.746 14.634C52.5673 15.2407 53.0433 16.09 53.174 17.182H51.466C51.382 16.5473 51.088 16.0527 50.584 15.698C50.1173 15.362 49.5527 15.194 48.89 15.194C47.8913 15.194 47.1167 15.5907 46.566 16.384C46.09 17.0747 45.852 17.9473 45.852 19.002C45.852 20.0567 46.09 20.9293 46.566 21.62C47.1073 22.404 47.882 22.8007 48.89 22.81C49.7767 22.8193 50.458 22.5813 50.934 22.096C51.4193 21.6013 51.6713 20.9247 51.69 20.066H49.03V18.736H53.286ZM61.319 16.762V24H59.751V22.992H59.723C59.527 23.3467 59.233 23.636 58.841 23.86C58.4584 24.084 58.0664 24.196 57.665 24.196C55.8637 24.196 54.963 23.2487 54.963 21.354V16.762H56.559V21.2C56.559 22.3573 57.021 22.936 57.945 22.936C59.1304 22.936 59.723 22.278 59.723 20.962V16.762H61.319ZM69.5681 20.794H64.2481C64.2481 21.4007 64.4068 21.9 64.7241 22.292C65.0694 22.7213 65.5594 22.936 66.1941 22.936C67.0901 22.936 67.6781 22.5347 67.9581 21.732H69.4701C69.3021 22.5067 68.9148 23.1133 68.3081 23.552C67.7108 23.9813 67.0061 24.196 66.1941 24.196C65.0834 24.196 64.2154 23.846 63.5901 23.146C62.9648 22.446 62.6521 21.5267 62.6521 20.388C62.6521 19.324 62.9648 18.428 63.5901 17.7C64.2528 16.944 65.1068 16.566 66.1521 16.566C67.1694 16.566 68.0048 16.9393 68.6581 17.686C69.2834 18.386 69.5961 19.2447 69.5961 20.262C69.5961 20.4393 69.5868 20.6167 69.5681 20.794ZM64.2481 19.744H67.9721C67.9441 19.212 67.7621 18.7593 67.4261 18.386C67.0994 18.0127 66.6748 17.826 66.1521 17.826C65.6108 17.826 65.1628 18.008 64.8081 18.372C64.4534 18.736 64.2668 19.1933 64.2481 19.744ZM70.3894 21.676H71.9854C72.0601 22.516 72.6061 22.936 73.6234 22.936C74.7247 22.936 75.2614 22.6187 75.2334 21.984C75.2147 21.536 74.7947 21.214 73.9734 21.018C72.6014 20.682 71.8594 20.486 71.7474 20.43C70.9447 20.0753 70.5434 19.478 70.5434 18.638C70.5434 17.9193 70.8841 17.378 71.5654 17.014C72.1067 16.7153 72.7741 16.566 73.5674 16.566C74.3794 16.566 75.0467 16.734 75.5694 17.07C76.1574 17.462 76.4981 18.036 76.5914 18.792H74.9254C74.8041 18.148 74.3141 17.826 73.4554 17.826C72.5781 17.826 72.1394 18.0733 72.1394 18.568C72.1394 18.904 72.3867 19.1607 72.8814 19.338C72.9747 19.3753 73.5114 19.506 74.4914 19.73C75.2194 19.898 75.7561 20.1033 76.1014 20.346C76.5867 20.7007 76.8294 21.2 76.8294 21.844C76.8294 22.6373 76.4794 23.244 75.7794 23.664C75.1914 24.0187 74.4634 24.196 73.5954 24.196C72.6434 24.196 71.8874 23.9907 71.3274 23.58C70.7114 23.132 70.3987 22.4973 70.3894 21.676ZM77.3132 17.952V16.762H78.5172V14.592H80.1132V16.762H81.5552V17.952H80.1132V21.816C80.1132 22.1893 80.1505 22.4367 80.2252 22.558C80.3278 22.726 80.5472 22.81 80.8832 22.81C81.1818 22.81 81.4058 22.7913 81.5552 22.754V23.986C80.8552 24.042 80.5098 24.07 80.5192 24.07C79.7352 24.07 79.1938 23.9113 78.8952 23.594C78.6432 23.3327 78.5172 22.8753 78.5172 22.222V17.952H77.3132Z" fill="#C9960C"/>
</g>
<defs>
<filter id="filter0_ddi_133_3355" x="0.5" y="0" width="97" height="46" filterUnits="userSpaceOnUse" color-interpolation-filters="sRGB">
<feFlood flood-opacity="0" result="BackgroundImageFix"/>
<feColorMatrix in="SourceAlpha" type="matrix" values="0 0 0 0 0 0 0 0 0 0 0 0 0 0 0 0 0 0 127 0" result="hardAlpha"/>
<feMorphology radius="1" operator="erode" in="SourceAlpha" result="effect1_dropShadow_133_3355"/>
<feOffset dy="4"/>
<feGaussianBlur stdDeviation="3"/>
<feComposite in2="hardAlpha" operator="out"/>
<feColorMatrix type="matrix" values="0 0 0 0 0.0627451 0 0 0 0 0.0941176 0 0 0 0 0.156863 0 0 0 0.1 0"/>
<feBlend mode="normal" in2="BackgroundImageFix" result="effect1_dropShadow_133_3355"/>
<feColorMatrix in="SourceAlpha" type="matrix" values="0 0 0 0 0 0 0 0 0 0 0 0 0 0 0 0 0 0 127 0" result="hardAlpha"/>
<feMorphology radius="2" operator="erode" in="SourceAlpha" result="effect2_dropShadow_133_3355"/>
<feOffset dy="2"/>
<feGaussianBlur stdDeviation="2"/>
<feComposite in2="hardAlpha" operator="out"/>
<feColorMatrix type="matrix" values="0 0 0 0 0.0627451 0 0 0 0 0.0941176 0 0 0 0 0.156863 0 0 0 0.1 0"/>
<feBlend mode="normal" in2="effect1_dropShadow_133_3355" result="effect2_dropShadow_133_3355"/>
<feBlend mode="normal" in="SourceGraphic" in2="effect2_dropShadow_133_3355" result="shape"/>
<feColorMatrix in="SourceAlpha" type="matrix" values="0 0 0 0 0 0 0 0 0 0 0 0 0 0 0 0 0 0 127 0" result="hardAlpha"/>
<feOffset dx="1" dy="1"/>
<feGaussianBlur stdDeviation="0.5"/>
<feComposite in2="hardAlpha" operator="arithmetic" k2="-1" k3="1"/>
<feColorMatrix type="matrix" values="0 0 0 0 1 0 0 0 0 1 0 0 0 0 1 0 0 0 0.25 0"/>
<feBlend mode="normal" in2="shape" result="effect3_innerShadow_133_3355"/>
</filter>
</defs>
</svg>
