<svg width="69" height="25" viewBox="0 0 69 25" fill="none" xmlns="http://www.w3.org/2000/svg">
<path d="M11 18.5H13V16.5H11V18.5ZM12 2.5C6.48 2.5 2 6.98 2 12.5C2 18.02 6.48 22.5 12 22.5C17.52 22.5 22 18.02 22 12.5C22 6.98 17.52 2.5 12 2.5ZM12 20.5C7.59 20.5 4 16.91 4 12.5C4 8.09 7.59 4.5 12 4.5C16.41 4.5 20 8.09 20 12.5C20 16.91 16.41 20.5 12 20.5ZM12 6.5C9.79 6.5 8 8.29 8 10.5H10C10 9.4 10.9 8.5 12 8.5C13.1 8.5 14 9.4 14 10.5C14 12.5 11 12.25 11 15.5H13C13 13.25 16 13 16 10.5C16 8.29 14.21 6.5 12 6.5Z" fill="#302722"/>
<path d="M39.8213 19H37.7207V13.1992H31.7969V19H29.6875V6.15039H31.7969V11.4062H37.7207V6.15039H39.8213V19ZM46.8877 9.08594C47.7549 9.08594 48.499 9.26465 49.1201 9.62207C49.7412 9.97949 50.2188 10.4863 50.5527 11.1426C50.8867 11.7988 51.0537 12.584 51.0537 13.498V14.6055H44.5586C44.582 15.5488 44.834 16.2754 45.3145 16.7852C45.8008 17.2949 46.4805 17.5498 47.3535 17.5498C47.9746 17.5498 48.5312 17.4912 49.0234 17.374C49.5215 17.251 50.0342 17.0723 50.5615 16.8379V18.5166C50.0752 18.7451 49.5801 18.9121 49.0762 19.0176C48.5723 19.123 47.9688 19.1758 47.2656 19.1758C46.3105 19.1758 45.4697 18.9912 44.7432 18.6221C44.0225 18.2471 43.457 17.6904 43.0469 16.9521C42.6426 16.2139 42.4404 15.2969 42.4404 14.2012C42.4404 13.1113 42.625 12.1855 42.9941 11.4238C43.3633 10.6621 43.8818 10.082 44.5498 9.68359C45.2178 9.28516 45.9971 9.08594 46.8877 9.08594ZM46.8877 10.6416C46.2373 10.6416 45.71 10.8525 45.3057 11.2744C44.9072 11.6963 44.6729 12.3145 44.6025 13.1289H49.0322C49.0264 12.6426 48.9443 12.2119 48.7861 11.8369C48.6338 11.4619 48.3994 11.1689 48.083 10.958C47.7725 10.7471 47.374 10.6416 46.8877 10.6416ZM55.457 19H53.3828V5.32422H55.457V19ZM63.4023 9.08594C64.5566 9.08594 65.4824 9.50781 66.1797 10.3516C66.8828 11.1953 67.2344 12.4492 67.2344 14.1133C67.2344 15.2148 67.0703 16.1436 66.7422 16.8994C66.4199 17.6494 65.9658 18.2178 65.3799 18.6045C64.7998 18.9854 64.123 19.1758 63.3496 19.1758C62.8574 19.1758 62.4297 19.1113 62.0664 18.9824C61.7031 18.8535 61.3926 18.6865 61.1348 18.4814C60.877 18.2705 60.6602 18.042 60.4844 17.7959H60.3613C60.3906 18.0303 60.417 18.291 60.4404 18.5781C60.4697 18.8594 60.4844 19.1172 60.4844 19.3516V23.3154H58.4102V9.27051H60.0977L60.3877 10.6152H60.4844C60.666 10.3398 60.8857 10.085 61.1436 9.85059C61.4072 9.61621 61.7236 9.43164 62.0928 9.29688C62.4678 9.15625 62.9043 9.08594 63.4023 9.08594ZM62.8486 10.7734C62.2803 10.7734 61.8232 10.8877 61.4775 11.1162C61.1377 11.3389 60.8887 11.6758 60.7305 12.127C60.5781 12.5781 60.4961 13.1436 60.4844 13.8232V14.1133C60.4844 14.834 60.5576 15.4463 60.7041 15.9502C60.8564 16.4482 61.1055 16.8291 61.4512 17.0928C61.8027 17.3506 62.2773 17.4795 62.875 17.4795C63.3789 17.4795 63.7949 17.3418 64.123 17.0664C64.457 16.791 64.7061 16.3984 64.8701 15.8887C65.0342 15.3789 65.1162 14.7783 65.1162 14.0869C65.1162 13.0381 64.9287 12.2236 64.5537 11.6436C64.1846 11.0635 63.6162 10.7734 62.8486 10.7734Z" fill="#302722"/>
</svg>
