<svg width="194" height="36" viewBox="0 0 194 36" fill="none" xmlns="http://www.w3.org/2000/svg">
<rect x="0.689697" y="0.75" width="192.5" height="34.5" rx="3.75" fill="white"/>
<path d="M12.5208 15.8711C13.1588 15.8711 13.7056 16.0124 14.1614 16.2949C14.6171 16.5775 14.9657 16.974 15.2073 17.4844C15.4488 17.9902 15.5696 18.5827 15.5696 19.2617V19.9658H10.3948C10.4084 20.8454 10.6272 21.5153 11.051 21.9756C11.4749 22.4359 12.0719 22.666 12.842 22.666C13.316 22.666 13.7353 22.6227 14.0999 22.5361C14.4644 22.4495 14.8427 22.3219 15.2346 22.1533V23.1514C14.8564 23.32 14.4804 23.443 14.1067 23.5205C13.7375 23.598 13.3 23.6367 12.7942 23.6367C12.0741 23.6367 11.4452 23.4909 10.9075 23.1992C10.3743 22.903 9.95955 22.4701 9.66333 21.9004C9.36711 21.3307 9.21899 20.6335 9.21899 19.8086C9.21899 19.002 9.35343 18.3047 9.62231 17.7168C9.89575 17.1243 10.2786 16.6686 10.7708 16.3496C11.2675 16.0306 11.8508 15.8711 12.5208 15.8711ZM12.5071 16.8008C11.901 16.8008 11.4179 16.999 11.0579 17.3955C10.6978 17.792 10.4836 18.3457 10.4153 19.0566H14.3801C14.3756 18.61 14.3049 18.2181 14.1682 17.8809C14.0361 17.5391 13.8333 17.2747 13.5598 17.0879C13.2864 16.8965 12.9355 16.8008 12.5071 16.8008ZM16.6264 22.7891C16.6264 22.4701 16.7039 22.2445 16.8588 22.1123C17.0138 21.9756 17.2029 21.9072 17.4262 21.9072C17.6586 21.9072 17.8546 21.9756 18.0141 22.1123C18.1736 22.2445 18.2534 22.4701 18.2534 22.7891C18.2534 23.1035 18.1736 23.3337 18.0141 23.4795C17.8546 23.6208 17.6586 23.6914 17.4262 23.6914C17.2029 23.6914 17.0138 23.6208 16.8588 23.4795C16.7039 23.3337 16.6264 23.1035 16.6264 22.7891ZM21.8668 26.8633C20.8825 26.8633 20.1237 26.6787 19.5905 26.3096C19.0573 25.945 18.7907 25.4323 18.7907 24.7715C18.7907 24.3021 18.9388 23.901 19.235 23.5684C19.5358 23.2357 19.9505 23.0146 20.4792 22.9053C20.2832 22.8141 20.1146 22.6774 19.9733 22.4951C19.8366 22.3128 19.7682 22.1032 19.7682 21.8662C19.7682 21.5928 19.8434 21.3535 19.9938 21.1484C20.1487 20.9388 20.3834 20.7383 20.6979 20.5469C20.306 20.3874 19.987 20.1185 19.7409 19.7402C19.4993 19.3574 19.3786 18.9131 19.3786 18.4072C19.3786 17.8695 19.4902 17.4115 19.7135 17.0332C19.9368 16.6504 20.2604 16.3587 20.6842 16.1582C21.1081 15.9577 21.6208 15.8574 22.2223 15.8574C22.3545 15.8574 22.4866 15.8643 22.6188 15.8779C22.7555 15.887 22.8854 15.903 23.0084 15.9258C23.1315 15.944 23.2386 15.9668 23.3297 15.9941H25.9V16.7256L24.5192 16.8965C24.6559 17.0742 24.7698 17.2884 24.861 17.5391C24.9521 17.7897 24.9977 18.0677 24.9977 18.373C24.9977 19.1204 24.7448 19.7152 24.2389 20.1572C23.7331 20.5947 23.0381 20.8135 22.154 20.8135C21.9443 20.8135 21.7301 20.7952 21.5114 20.7588C21.2881 20.8818 21.1172 21.0186 20.9987 21.1689C20.8847 21.3193 20.8278 21.4925 20.8278 21.6885C20.8278 21.8343 20.8711 21.9505 20.9577 22.0371C21.0488 22.1237 21.1787 22.1875 21.3473 22.2285C21.5159 22.265 21.7187 22.2832 21.9557 22.2832H23.275C24.0908 22.2832 24.7152 22.4541 25.1481 22.7959C25.5856 23.1377 25.8043 23.6367 25.8043 24.293C25.8043 25.1224 25.4671 25.7581 24.7926 26.2002C24.1181 26.6423 23.1429 26.8633 21.8668 26.8633ZM21.901 25.9746C22.5208 25.9746 23.0335 25.9108 23.4391 25.7832C23.8493 25.6602 24.1546 25.4801 24.3551 25.2432C24.5602 25.0107 24.6627 24.7327 24.6627 24.4092C24.6627 24.1084 24.5944 23.8805 24.4577 23.7256C24.3209 23.5752 24.1204 23.4749 23.8561 23.4248C23.5918 23.3701 23.2682 23.3428 22.8854 23.3428H21.5866C21.2493 23.3428 20.9554 23.3952 20.7047 23.5C20.4541 23.6048 20.2604 23.7598 20.1237 23.9648C19.9915 24.1699 19.9254 24.4251 19.9254 24.7305C19.9254 25.1361 20.0963 25.4437 20.4381 25.6533C20.7799 25.8675 21.2676 25.9746 21.901 25.9746ZM22.195 19.9863C22.7373 19.9863 23.1452 19.8496 23.4186 19.5762C23.692 19.3027 23.8288 18.904 23.8288 18.3799C23.8288 17.8193 23.6898 17.4001 23.4118 17.1221C23.1338 16.8395 22.7236 16.6982 22.1813 16.6982C21.6618 16.6982 21.2607 16.8441 20.9782 17.1357C20.7002 17.4229 20.5612 17.8444 20.5612 18.4004C20.5612 18.9108 20.7025 19.3027 20.985 19.5762C21.2676 19.8496 21.6709 19.9863 22.195 19.9863ZM26.5057 22.7891C26.5057 22.4701 26.5832 22.2445 26.7381 22.1123C26.8931 21.9756 27.0822 21.9072 27.3055 21.9072C27.5379 21.9072 27.7339 21.9756 27.8934 22.1123C28.0529 22.2445 28.1327 22.4701 28.1327 22.7891C28.1327 23.1035 28.0529 23.3337 27.8934 23.4795C27.7339 23.6208 27.5379 23.6914 27.3055 23.6914C27.0822 23.6914 26.8931 23.6208 26.7381 23.4795C26.5832 23.3337 26.5057 23.1035 26.5057 22.7891ZM35.592 23.6367C34.9176 23.6367 34.3228 23.4977 33.8079 23.2197C33.2929 22.9417 32.8918 22.5179 32.6047 21.9482C32.3176 21.3786 32.1741 20.6608 32.1741 19.7949C32.1741 18.888 32.3245 18.1475 32.6252 17.5732C32.9306 16.9945 33.3499 16.5661 33.8831 16.2881C34.4163 16.0101 35.0224 15.8711 35.7014 15.8711C36.0751 15.8711 36.4351 15.9098 36.7815 15.9873C37.1324 16.0602 37.4195 16.1536 37.6428 16.2676L37.301 17.2178C37.0732 17.1266 36.8088 17.0446 36.5081 16.9717C36.2118 16.8988 35.9338 16.8623 35.6741 16.8623C35.1545 16.8623 34.7216 16.974 34.3752 17.1973C34.0334 17.4206 33.776 17.7487 33.6028 18.1816C33.4342 18.6146 33.3499 19.1478 33.3499 19.7812C33.3499 20.3874 33.4319 20.9046 33.5959 21.333C33.7646 21.7614 34.0129 22.0895 34.3411 22.3174C34.6737 22.5407 35.0885 22.6523 35.5852 22.6523C35.9817 22.6523 36.3394 22.6113 36.6584 22.5293C36.9775 22.4427 37.2668 22.3424 37.5266 22.2285V23.2402C37.276 23.3678 36.9957 23.4658 36.6858 23.5342C36.3805 23.6025 36.0159 23.6367 35.592 23.6367ZM39.7387 16.0078V23.5H38.604V16.0078H39.7387ZM39.185 13.2051C39.3719 13.2051 39.5314 13.2666 39.6635 13.3896C39.8002 13.5081 39.8686 13.695 39.8686 13.9502C39.8686 14.2008 39.8002 14.3877 39.6635 14.5107C39.5314 14.6338 39.3719 14.6953 39.185 14.6953C38.989 14.6953 38.825 14.6338 38.6928 14.5107C38.5652 14.3877 38.5014 14.2008 38.5014 13.9502C38.5014 13.695 38.5652 13.5081 38.6928 13.3896C38.825 13.2666 38.989 13.2051 39.185 13.2051ZM43.8649 22.707C44.0517 22.707 44.2431 22.6911 44.4391 22.6592C44.6351 22.6273 44.7946 22.5885 44.9176 22.543V23.4248C44.7855 23.484 44.6009 23.5342 44.3639 23.5752C44.1315 23.6162 43.9036 23.6367 43.6803 23.6367C43.2838 23.6367 42.9238 23.5684 42.6002 23.4316C42.2767 23.2904 42.0169 23.0534 41.8209 22.7207C41.6295 22.388 41.5338 21.9277 41.5338 21.3398V16.8965H40.4674V16.3428L41.5407 15.8984L41.9918 14.2715H42.6754V16.0078H44.8698V16.8965H42.6754V21.3057C42.6754 21.7751 42.7825 22.126 42.9967 22.3584C43.2155 22.5908 43.5049 22.707 43.8649 22.707ZM44.5526 16.0078H45.7694L47.4237 20.3555C47.5194 20.6107 47.6083 20.8568 47.6903 21.0938C47.7723 21.3262 47.8452 21.5495 47.909 21.7637C47.9728 21.9779 48.023 22.1852 48.0594 22.3857H48.1073C48.1711 22.1579 48.2622 21.8594 48.3807 21.4902C48.4992 21.1165 48.6268 20.736 48.7635 20.3486L50.329 16.0078H51.5526L48.2918 24.6006C48.1187 25.0609 47.9159 25.4619 47.6834 25.8037C47.4556 26.1455 47.1776 26.4076 46.8495 26.5898C46.5213 26.7767 46.1249 26.8701 45.66 26.8701C45.4458 26.8701 45.2567 26.8564 45.0926 26.8291C44.9286 26.8063 44.7873 26.779 44.6688 26.7471V25.8379C44.7691 25.8607 44.8898 25.8812 45.0311 25.8994C45.1769 25.9176 45.3273 25.9268 45.4823 25.9268C45.7648 25.9268 46.0086 25.8721 46.2137 25.7627C46.4234 25.6579 46.6034 25.5029 46.7538 25.2979C46.9042 25.0928 47.034 24.849 47.1434 24.5664L47.5536 23.5137L44.5526 16.0078ZM53.3477 21.873L53.4366 22.0303C53.3545 22.363 53.2497 22.7184 53.1221 23.0967C52.9991 23.4749 52.8624 23.8532 52.712 24.2314C52.5661 24.6143 52.418 24.972 52.2676 25.3047H51.42C51.5157 24.9401 51.6091 24.555 51.7002 24.1494C51.7914 23.7484 51.8734 23.3519 51.9463 22.96C52.0238 22.5635 52.0853 22.2012 52.1309 21.873H53.3477ZM61.3129 15.8711C61.4633 15.8711 61.6206 15.8802 61.7846 15.8984C61.9487 15.9121 62.0945 15.9326 62.2221 15.96L62.0786 17.0127C61.9555 16.9808 61.8188 16.9557 61.6684 16.9375C61.518 16.9193 61.3767 16.9102 61.2446 16.9102C60.9438 16.9102 60.659 16.9717 60.3901 17.0947C60.1258 17.2132 59.8933 17.3864 59.6928 17.6143C59.4923 17.8376 59.3351 18.1087 59.2211 18.4277C59.1072 18.7422 59.0502 19.0931 59.0502 19.4805V23.5H57.9086V16.0078H58.852L58.975 17.3887H59.0229C59.1778 17.1107 59.3647 16.8577 59.5834 16.6299C59.8022 16.3975 60.0551 16.2129 60.3422 16.0762C60.6339 15.9395 60.9575 15.8711 61.3129 15.8711ZM65.8219 15.8711C66.4599 15.8711 67.0068 16.0124 67.4625 16.2949C67.9183 16.5775 68.2669 16.974 68.5084 17.4844C68.75 17.9902 68.8708 18.5827 68.8708 19.2617V19.9658H63.6959C63.7096 20.8454 63.9284 21.5153 64.3522 21.9756C64.776 22.4359 65.373 22.666 66.1432 22.666C66.6172 22.666 67.0364 22.6227 67.401 22.5361C67.7656 22.4495 68.1439 22.3219 68.5358 22.1533V23.1514C68.1575 23.32 67.7816 23.443 67.4079 23.5205C67.0387 23.598 66.6012 23.6367 66.0954 23.6367C65.3753 23.6367 64.7464 23.4909 64.2086 23.1992C63.6754 22.903 63.2607 22.4701 62.9645 21.9004C62.6683 21.3307 62.5202 20.6335 62.5202 19.8086C62.5202 19.002 62.6546 18.3047 62.9235 17.7168C63.1969 17.1243 63.5797 16.6686 64.0719 16.3496C64.5687 16.0306 65.152 15.8711 65.8219 15.8711ZM65.8083 16.8008C65.2021 16.8008 64.7191 16.999 64.359 17.3955C63.999 17.792 63.7848 18.3457 63.7165 19.0566H67.6813C67.6767 18.61 67.6061 18.2181 67.4694 17.8809C67.3372 17.5391 67.1344 17.2747 66.861 17.0879C66.5875 16.8965 66.2366 16.8008 65.8083 16.8008ZM72.1903 26.8633C71.2059 26.8633 70.4471 26.6787 69.9139 26.3096C69.3807 25.945 69.1141 25.4323 69.1141 24.7715C69.1141 24.3021 69.2622 23.901 69.5584 23.5684C69.8592 23.2357 70.2739 23.0146 70.8026 22.9053C70.6066 22.8141 70.438 22.6774 70.2967 22.4951C70.16 22.3128 70.0917 22.1032 70.0917 21.8662C70.0917 21.5928 70.1668 21.3535 70.3172 21.1484C70.4722 20.9388 70.7069 20.7383 71.0213 20.5469C70.6294 20.3874 70.3104 20.1185 70.0643 19.7402C69.8228 19.3574 69.702 18.9131 69.702 18.4072C69.702 17.8695 69.8137 17.4115 70.037 17.0332C70.2603 16.6504 70.5838 16.3587 71.0077 16.1582C71.4315 15.9577 71.9442 15.8574 72.5458 15.8574C72.6779 15.8574 72.8101 15.8643 72.9422 15.8779C73.079 15.887 73.2088 15.903 73.3319 15.9258C73.4549 15.944 73.562 15.9668 73.6532 15.9941H76.2235V16.7256L74.8426 16.8965C74.9793 17.0742 75.0933 17.2884 75.1844 17.5391C75.2756 17.7897 75.3211 18.0677 75.3211 18.373C75.3211 19.1204 75.0682 19.7152 74.5624 20.1572C74.0565 20.5947 73.3615 20.8135 72.4774 20.8135C72.2678 20.8135 72.0536 20.7952 71.8348 20.7588C71.6115 20.8818 71.4406 21.0186 71.3221 21.1689C71.2082 21.3193 71.1512 21.4925 71.1512 21.6885C71.1512 21.8343 71.1945 21.9505 71.2811 22.0371C71.3723 22.1237 71.5021 22.1875 71.6708 22.2285C71.8394 22.265 72.0422 22.2832 72.2792 22.2832H73.5985C74.4142 22.2832 75.0386 22.4541 75.4715 22.7959C75.909 23.1377 76.1278 23.6367 76.1278 24.293C76.1278 25.1224 75.7905 25.7581 75.1161 26.2002C74.4416 26.6423 73.4663 26.8633 72.1903 26.8633ZM72.2245 25.9746C72.8443 25.9746 73.357 25.9108 73.7626 25.7832C74.1727 25.6602 74.478 25.4801 74.6786 25.2432C74.8836 25.0107 74.9862 24.7327 74.9862 24.4092C74.9862 24.1084 74.9178 23.8805 74.7811 23.7256C74.6444 23.5752 74.4439 23.4749 74.1795 23.4248C73.9152 23.3701 73.5917 23.3428 73.2088 23.3428H71.91C71.5728 23.3428 71.2788 23.3952 71.0282 23.5C70.7775 23.6048 70.5838 23.7598 70.4471 23.9648C70.315 24.1699 70.2489 24.4251 70.2489 24.7305C70.2489 25.1361 70.4198 25.4437 70.7616 25.6533C71.1034 25.8675 71.591 25.9746 72.2245 25.9746ZM72.5184 19.9863C73.0607 19.9863 73.4686 19.8496 73.742 19.5762C74.0155 19.3027 74.1522 18.904 74.1522 18.3799C74.1522 17.8193 74.0132 17.4001 73.7352 17.1221C73.4572 16.8395 73.0471 16.6982 72.5047 16.6982C71.9852 16.6982 71.5842 16.8441 71.3016 17.1357C71.0236 17.4229 70.8846 17.8444 70.8846 18.4004C70.8846 18.9108 71.0259 19.3027 71.3084 19.5762C71.591 19.8496 71.9943 19.9863 72.5184 19.9863ZM78.1348 16.0078V23.5H77V16.0078H78.1348ZM77.5811 13.2051C77.7679 13.2051 77.9275 13.2666 78.0596 13.3896C78.1963 13.5081 78.2647 13.695 78.2647 13.9502C78.2647 14.2008 78.1963 14.3877 78.0596 14.5107C77.9275 14.6338 77.7679 14.6953 77.5811 14.6953C77.3851 14.6953 77.2211 14.6338 77.0889 14.5107C76.9613 14.3877 76.8975 14.2008 76.8975 13.9502C76.8975 13.695 76.9613 13.5081 77.0889 13.3896C77.2211 13.2666 77.3851 13.2051 77.5811 13.2051ZM86.301 19.7402C86.301 20.3555 86.2213 20.9046 86.0618 21.3877C85.9023 21.8708 85.6721 22.2786 85.3713 22.6113C85.0706 22.944 84.706 23.1992 84.2776 23.377C83.8538 23.5501 83.373 23.6367 82.8352 23.6367C82.3339 23.6367 81.8736 23.5501 81.4543 23.377C81.0396 23.1992 80.6796 22.944 80.3743 22.6113C80.0735 22.2786 79.8388 21.8708 79.6702 21.3877C79.5061 20.9046 79.4241 20.3555 79.4241 19.7402C79.4241 18.9199 79.5631 18.2227 79.8411 17.6484C80.1191 17.0697 80.5155 16.6299 81.0305 16.3291C81.55 16.0238 82.1676 15.8711 82.8831 15.8711C83.5667 15.8711 84.1637 16.0238 84.6741 16.3291C85.189 16.6344 85.5878 17.0765 85.8704 17.6553C86.1575 18.2295 86.301 18.9245 86.301 19.7402ZM80.5999 19.7402C80.5999 20.3418 80.6796 20.8636 80.8391 21.3057C80.9986 21.7477 81.2447 22.0895 81.5774 22.3311C81.9101 22.5726 82.3385 22.6934 82.8625 22.6934C83.3821 22.6934 83.8082 22.5726 84.1409 22.3311C84.4781 22.0895 84.7265 21.7477 84.886 21.3057C85.0455 20.8636 85.1252 20.3418 85.1252 19.7402C85.1252 19.1432 85.0455 18.6283 84.886 18.1953C84.7265 17.7578 84.4804 17.4206 84.1477 17.1836C83.815 16.9466 83.3844 16.8281 82.8557 16.8281C82.0764 16.8281 81.5045 17.0856 81.1399 17.6006C80.7799 18.1156 80.5999 18.8288 80.5999 19.7402ZM91.1108 15.8711C91.9995 15.8711 92.6717 16.0898 93.1274 16.5273C93.5831 16.9603 93.811 17.6576 93.811 18.6191V23.5H92.6899V18.6943C92.6899 18.07 92.5463 17.6029 92.2592 17.293C91.9767 16.9831 91.5415 16.8281 90.9536 16.8281C90.1241 16.8281 89.5408 17.0628 89.2036 17.5322C88.8663 18.0016 88.6977 18.6829 88.6977 19.5762V23.5H87.5629V16.0078H88.479L88.6499 17.0879H88.7114C88.8709 16.8236 89.0737 16.6025 89.3198 16.4248C89.5659 16.2425 89.8416 16.1058 90.1469 16.0146C90.4523 15.9189 90.7736 15.8711 91.1108 15.8711ZM96.7477 21.873L96.8366 22.0303C96.7545 22.363 96.6497 22.7184 96.5221 23.0967C96.3991 23.4749 96.2624 23.8532 96.112 24.2314C95.9661 24.6143 95.818 24.972 95.6676 25.3047H94.82C94.9157 24.9401 95.0091 24.555 95.1002 24.1494C95.1914 23.7484 95.2734 23.3519 95.3463 22.96C95.4238 22.5635 95.4853 22.2012 95.5309 21.873H96.7477ZM103.975 23.6367C103.027 23.6367 102.275 23.3132 101.719 22.666C101.167 22.0189 100.892 21.0573 100.892 19.7812C100.892 18.4915 101.174 17.5186 101.739 16.8623C102.304 16.2015 103.056 15.8711 103.995 15.8711C104.392 15.8711 104.738 15.9235 105.034 16.0283C105.33 16.1331 105.586 16.2744 105.8 16.4521C106.014 16.6253 106.194 16.8236 106.34 17.0469H106.422C106.404 16.9056 106.385 16.7119 106.367 16.4658C106.349 16.2197 106.34 16.0192 106.34 15.8643V12.8633H107.475V23.5H106.559L106.388 22.4336H106.34C106.199 22.6569 106.019 22.8597 105.8 23.042C105.586 23.2243 105.328 23.3701 105.027 23.4795C104.731 23.5843 104.38 23.6367 103.975 23.6367ZM104.152 22.6934C104.954 22.6934 105.522 22.4655 105.855 22.0098C106.187 21.554 106.354 20.8773 106.354 19.9795V19.7744C106.354 18.8219 106.194 18.0905 105.875 17.5801C105.561 17.0697 104.986 16.8145 104.152 16.8145C103.455 16.8145 102.933 17.0833 102.587 17.6211C102.241 18.1543 102.067 18.8835 102.067 19.8086C102.067 20.7292 102.238 21.4401 102.58 21.9414C102.926 22.4427 103.451 22.6934 104.152 22.6934ZM110.316 16.0078V23.5H109.181V16.0078H110.316ZM109.762 13.2051C109.949 13.2051 110.108 13.2666 110.24 13.3896C110.377 13.5081 110.446 13.695 110.446 13.9502C110.446 14.2008 110.377 14.3877 110.24 14.5107C110.108 14.6338 109.949 14.6953 109.762 14.6953C109.566 14.6953 109.402 14.6338 109.27 14.5107C109.142 14.3877 109.078 14.2008 109.078 13.9502C109.078 13.695 109.142 13.5081 109.27 13.3896C109.402 13.2666 109.566 13.2051 109.762 13.2051ZM116.869 21.4492C116.869 21.9277 116.748 22.3311 116.506 22.6592C116.269 22.9827 115.928 23.2266 115.481 23.3906C115.039 23.5547 114.51 23.6367 113.895 23.6367C113.371 23.6367 112.917 23.5957 112.535 23.5137C112.152 23.4316 111.817 23.3154 111.53 23.165V22.1191C111.835 22.2695 112.2 22.4062 112.623 22.5293C113.047 22.6523 113.48 22.7139 113.922 22.7139C114.569 22.7139 115.039 22.609 115.331 22.3994C115.622 22.1898 115.768 21.9049 115.768 21.5449C115.768 21.3398 115.709 21.1598 115.59 21.0049C115.476 20.8454 115.283 20.6927 115.009 20.5469C114.736 20.3965 114.358 20.2324 113.874 20.0547C113.396 19.8724 112.981 19.6924 112.63 19.5146C112.284 19.3324 112.015 19.1113 111.824 18.8516C111.637 18.5918 111.543 18.2546 111.543 17.8398C111.543 17.2064 111.799 16.721 112.309 16.3838C112.824 16.042 113.498 15.8711 114.332 15.8711C114.784 15.8711 115.205 15.9167 115.597 16.0078C115.994 16.0944 116.363 16.2129 116.705 16.3633L116.322 17.2725C116.012 17.1403 115.681 17.0286 115.331 16.9375C114.98 16.8464 114.622 16.8008 114.257 16.8008C113.733 16.8008 113.33 16.8874 113.047 17.0605C112.769 17.2337 112.63 17.4707 112.63 17.7715C112.63 18.0039 112.694 18.1953 112.822 18.3457C112.954 18.4961 113.164 18.6374 113.451 18.7695C113.738 18.9017 114.116 19.0566 114.585 19.2344C115.055 19.4076 115.46 19.5876 115.802 19.7744C116.144 19.9567 116.406 20.18 116.588 20.4443C116.775 20.7041 116.869 21.0391 116.869 21.4492ZM120.414 22.707C120.601 22.707 120.792 22.6911 120.988 22.6592C121.184 22.6273 121.343 22.5885 121.466 22.543V23.4248C121.334 23.484 121.15 23.5342 120.913 23.5752C120.68 23.6162 120.452 23.6367 120.229 23.6367C119.833 23.6367 119.473 23.5684 119.149 23.4316C118.826 23.2904 118.566 23.0534 118.37 22.7207C118.178 22.388 118.083 21.9277 118.083 21.3398V16.8965H117.016V16.3428L118.09 15.8984L118.541 14.2715H119.224V16.0078H121.419V16.8965H119.224V21.3057C119.224 21.7751 119.331 22.126 119.546 22.3584C119.764 22.5908 120.054 22.707 120.414 22.707ZM125.688 15.8711C125.839 15.8711 125.996 15.8802 126.16 15.8984C126.324 15.9121 126.47 15.9326 126.598 15.96L126.454 17.0127C126.331 16.9808 126.194 16.9557 126.044 16.9375C125.893 16.9193 125.752 16.9102 125.62 16.9102C125.319 16.9102 125.034 16.9717 124.765 17.0947C124.501 17.2132 124.269 17.3864 124.068 17.6143C123.868 17.8376 123.71 18.1087 123.597 18.4277C123.483 18.7422 123.426 19.0931 123.426 19.4805V23.5H122.284V16.0078H123.227L123.35 17.3887H123.398C123.553 17.1107 123.74 16.8577 123.959 16.6299C124.178 16.3975 124.431 16.2129 124.718 16.0762C125.009 15.9395 125.333 15.8711 125.688 15.8711ZM128.447 16.0078V23.5H127.313V16.0078H128.447ZM127.894 13.2051C128.08 13.2051 128.24 13.2666 128.372 13.3896C128.509 13.5081 128.577 13.695 128.577 13.9502C128.577 14.2008 128.509 14.3877 128.372 14.5107C128.24 14.6338 128.08 14.6953 127.894 14.6953C127.698 14.6953 127.534 14.6338 127.401 14.5107C127.274 14.3877 127.21 14.2008 127.21 13.9502C127.21 13.695 127.274 13.5081 127.401 13.3896C127.534 13.2666 127.698 13.2051 127.894 13.2051ZM133.155 23.6367C132.48 23.6367 131.885 23.4977 131.37 23.2197C130.855 22.9417 130.454 22.5179 130.167 21.9482C129.88 21.3786 129.737 20.6608 129.737 19.7949C129.737 18.888 129.887 18.1475 130.188 17.5732C130.493 16.9945 130.912 16.5661 131.446 16.2881C131.979 16.0101 132.585 15.8711 133.264 15.8711C133.638 15.8711 133.998 15.9098 134.344 15.9873C134.695 16.0602 134.982 16.1536 135.205 16.2676L134.864 17.2178C134.636 17.1266 134.371 17.0446 134.071 16.9717C133.774 16.8988 133.496 16.8623 133.237 16.8623C132.717 16.8623 132.284 16.974 131.938 17.1973C131.596 17.4206 131.338 17.7487 131.165 18.1816C130.997 18.6146 130.912 19.1478 130.912 19.7812C130.912 20.3874 130.994 20.9046 131.158 21.333C131.327 21.7614 131.575 22.0895 131.904 22.3174C132.236 22.5407 132.651 22.6523 133.148 22.6523C133.544 22.6523 133.902 22.6113 134.221 22.5293C134.54 22.4427 134.829 22.3424 135.089 22.2285V23.2402C134.838 23.3678 134.558 23.4658 134.248 23.5342C133.943 23.6025 133.578 23.6367 133.155 23.6367ZM138.586 22.707C138.773 22.707 138.965 22.6911 139.161 22.6592C139.357 22.6273 139.516 22.5885 139.639 22.543V23.4248C139.507 23.484 139.322 23.5342 139.085 23.5752C138.853 23.6162 138.625 23.6367 138.402 23.6367C138.005 23.6367 137.645 23.5684 137.322 23.4316C136.998 23.2904 136.738 23.0534 136.542 22.7207C136.351 22.388 136.255 21.9277 136.255 21.3398V16.8965H135.189V16.3428L136.262 15.8984L136.713 14.2715H137.397V16.0078H139.591V16.8965H137.397V21.3057C137.397 21.7751 137.504 22.126 137.718 22.3584C137.937 22.5908 138.226 22.707 138.586 22.707ZM140.286 22.7891C140.286 22.4701 140.363 22.2445 140.518 22.1123C140.673 21.9756 140.862 21.9072 141.086 21.9072C141.318 21.9072 141.514 21.9756 141.673 22.1123C141.833 22.2445 141.913 22.4701 141.913 22.7891C141.913 23.1035 141.833 23.3337 141.673 23.4795C141.514 23.6208 141.318 23.6914 141.086 23.6914C140.862 23.6914 140.673 23.6208 140.518 23.4795C140.363 23.3337 140.286 23.1035 140.286 22.7891ZM143.264 22.7891C143.264 22.4701 143.341 22.2445 143.496 22.1123C143.651 21.9756 143.84 21.9072 144.063 21.9072C144.296 21.9072 144.492 21.9756 144.651 22.1123C144.811 22.2445 144.89 22.4701 144.89 22.7891C144.89 23.1035 144.811 23.3337 144.651 23.4795C144.492 23.6208 144.296 23.6914 144.063 23.6914C143.84 23.6914 143.651 23.6208 143.496 23.4795C143.341 23.3337 143.264 23.1035 143.264 22.7891ZM146.241 22.7891C146.241 22.4701 146.319 22.2445 146.474 22.1123C146.629 21.9756 146.818 21.9072 147.041 21.9072C147.273 21.9072 147.469 21.9756 147.629 22.1123C147.788 22.2445 147.868 22.4701 147.868 22.7891C147.868 23.1035 147.788 23.3337 147.629 23.4795C147.469 23.6208 147.273 23.6914 147.041 23.6914C146.818 23.6914 146.629 23.6208 146.474 23.4795C146.319 23.3337 146.241 23.1035 146.241 22.7891Z" fill="#756F6C"/>
<rect x="0.689697" y="0.75" width="192.5" height="34.5" rx="3.75" stroke="#008CBA" stroke-width="0.5"/>
</svg>
