<svg width="210" height="24" viewBox="0 0 210 24" fill="none" xmlns="http://www.w3.org/2000/svg">
<path d="M15 9.76923L7.5 4L0 9.76923V19H5.76923V13.2308H9.23077V19H15V9.76923Z" fill="white"/>
<path d="M36.66 9.26H34.16C33.68 7.36667 32.4933 6.42 30.6 6.42C29.1733 6.42 28.0667 6.98667 27.28 8.12C26.6 9.10667 26.26 10.3533 26.26 11.86C26.26 13.3667 26.6 14.6133 27.28 15.6C28.0667 16.7333 29.1733 17.3 30.6 17.3C31.6667 17.3 32.5267 16.9333 33.18 16.2C33.78 15.5333 34.1333 14.6533 34.24 13.56H36.68C36.5733 15.28 35.96 16.6733 34.84 17.74C33.7333 18.8067 32.32 19.34 30.6 19.34C28.52 19.34 26.8467 18.6 25.58 17.12C24.3667 15.72 23.76 13.9667 23.76 11.86C23.76 9.74 24.3667 7.98 25.58 6.58C26.8467 5.11333 28.52 4.38 30.6 4.38C32.24 4.38 33.6133 4.80667 34.72 5.66C35.8667 6.55333 36.5133 7.75333 36.66 9.26ZM38.6336 19V4.72H40.9136V10.02H40.9536C41.2469 9.54 41.6669 9.14667 42.2136 8.84C42.7736 8.53333 43.3869 8.38 44.0536 8.38C45.2003 8.38 46.0936 8.68 46.7336 9.28C47.3869 9.88 47.7136 10.7533 47.7136 11.9V19H45.4336V12.5C45.4336 10.9533 44.7603 10.18 43.4136 10.18C42.6669 10.18 42.0603 10.44 41.5936 10.96C41.1403 11.48 40.9136 12.1267 40.9136 12.9V19H38.6336ZM59.498 14.42H51.898C51.898 15.2867 52.1246 16 52.578 16.56C53.0713 17.1733 53.7713 17.48 54.678 17.48C55.958 17.48 56.798 16.9067 57.198 15.76H59.358C59.118 16.8667 58.5646 17.7333 57.698 18.36C56.8446 18.9733 55.838 19.28 54.678 19.28C53.0913 19.28 51.8513 18.78 50.958 17.78C50.0646 16.78 49.618 15.4667 49.618 13.84C49.618 12.32 50.0646 11.04 50.958 10C51.9046 8.92 53.1246 8.38 54.618 8.38C56.0713 8.38 57.2646 8.91333 58.198 9.98C59.0913 10.98 59.538 12.2067 59.538 13.66C59.538 13.9133 59.5246 14.1667 59.498 14.42ZM51.898 12.92H57.218C57.178 12.16 56.918 11.5133 56.438 10.98C55.9713 10.4467 55.3646 10.18 54.618 10.18C53.8446 10.18 53.2046 10.44 52.698 10.96C52.1913 11.48 51.9246 12.1333 51.898 12.92ZM70.4913 12.12H68.2113C68.0246 10.8267 67.2379 10.18 65.8513 10.18C65.0913 10.18 64.4713 10.4133 63.9913 10.88C63.3379 11.52 63.0113 12.54 63.0113 13.94C63.0113 14.9133 63.2179 15.72 63.6313 16.36C64.1246 17.1067 64.8313 17.48 65.7513 17.48C66.4179 17.48 66.9646 17.2733 67.3913 16.86C67.8313 16.4333 68.1046 15.8533 68.2113 15.12H70.4913C70.0513 17.8933 68.4713 19.28 65.7513 19.28C64.1779 19.28 62.9379 18.7667 62.0313 17.74C61.1646 16.78 60.7313 15.5133 60.7313 13.94C60.7313 12.3 61.1579 10.98 62.0113 9.98C62.9179 8.91333 64.1913 8.38 65.8313 8.38C67.0979 8.38 68.1446 8.68667 68.9713 9.3C69.8779 9.96667 70.3846 10.9067 70.4913 12.12ZM72.4045 19V4.72H74.6845V12.84L78.8045 8.66H81.6045L77.6445 12.46L81.9845 19H79.2045L76.0445 13.98L74.6845 15.3V19H72.4045ZM88.9331 19V4.72H92.4531L96.3931 15.9H96.4331L100.273 4.72H103.753V19H101.373V7.98H101.333L97.3731 19H95.3131L91.3531 7.98H91.3131V19H88.9331ZM109.207 18.96L105.287 8.66H107.787L110.487 16.38H110.527L113.147 8.66H115.527L111.507 19.56C111.053 20.7867 110.653 21.6133 110.307 22.04C109.733 22.7467 108.913 23.1 107.847 23.1C107.313 23.1 106.787 23.06 106.267 22.98V21.06C106.827 21.1533 107.187 21.2 107.347 21.2C107.827 21.2 108.193 21.0667 108.447 20.8C108.62 20.6133 108.787 20.2667 108.947 19.76L109.207 18.96ZM125.184 6.76V11.48H128.844C129.511 11.48 130.071 11.3133 130.524 10.98C131.071 10.5667 131.344 9.94667 131.344 9.12C131.344 7.54667 130.524 6.76 128.884 6.76H125.184ZM122.684 19V4.72H128.984C130.797 4.72 132.117 5.23333 132.944 6.26C133.544 7.00667 133.844 7.96667 133.844 9.14C133.844 10.3 133.544 11.2467 132.944 11.98C132.117 13.0067 130.797 13.52 128.984 13.52H125.184V19H122.684ZM140.444 17.48C141.404 17.48 142.151 17.0933 142.684 16.32C143.151 15.6533 143.384 14.82 143.384 13.82C143.384 12.8333 143.151 12.0067 142.684 11.34C142.151 10.5667 141.404 10.18 140.444 10.18C139.484 10.18 138.737 10.5667 138.204 11.34C137.737 12.0067 137.504 12.8333 137.504 13.82C137.504 14.82 137.737 15.6533 138.204 16.32C138.737 17.0933 139.484 17.48 140.444 17.48ZM140.444 19.28C138.817 19.28 137.531 18.7667 136.584 17.74C135.677 16.7533 135.224 15.4467 135.224 13.82C135.224 12.2067 135.684 10.9 136.604 9.9C137.537 8.88667 138.817 8.38 140.444 8.38C142.071 8.38 143.357 8.89333 144.304 9.92C145.211 10.9067 145.664 12.2067 145.664 13.82C145.664 15.4467 145.211 16.7533 144.304 17.74C143.357 18.7667 142.071 19.28 140.444 19.28ZM146.999 15.68H149.279C149.386 16.88 150.166 17.48 151.619 17.48C153.193 17.48 153.959 17.0267 153.919 16.12C153.893 15.48 153.293 15.02 152.119 14.74C150.159 14.26 149.099 13.98 148.939 13.9C147.793 13.3933 147.219 12.54 147.219 11.34C147.219 10.3133 147.706 9.54 148.679 9.02C149.453 8.59333 150.406 8.38 151.539 8.38C152.699 8.38 153.653 8.62 154.399 9.1C155.239 9.66 155.726 10.48 155.859 11.56H153.479C153.306 10.64 152.606 10.18 151.379 10.18C150.126 10.18 149.499 10.5333 149.499 11.24C149.499 11.72 149.853 12.0867 150.559 12.34C150.693 12.3933 151.459 12.58 152.859 12.9C153.899 13.14 154.666 13.4333 155.159 13.78C155.853 14.2867 156.199 15 156.199 15.92C156.199 17.0533 155.699 17.92 154.699 18.52C153.859 19.0267 152.819 19.28 151.579 19.28C150.219 19.28 149.139 18.9867 148.339 18.4C147.459 17.76 147.013 16.8533 146.999 15.68ZM156.89 10.36V8.66H158.61V5.56H160.89V8.66H162.95V10.36H160.89V15.88C160.89 16.4133 160.944 16.7667 161.05 16.94C161.197 17.18 161.51 17.3 161.99 17.3C162.417 17.3 162.737 17.2733 162.95 17.22V18.98C161.95 19.06 161.457 19.1 161.47 19.1C160.35 19.1 159.577 18.8733 159.15 18.42C158.79 18.0467 158.61 17.3933 158.61 16.46V10.36H156.89ZM173.851 12.12H171.571C171.384 10.8267 170.597 10.18 169.211 10.18C168.451 10.18 167.831 10.4133 167.351 10.88C166.697 11.52 166.371 12.54 166.371 13.94C166.371 14.9133 166.577 15.72 166.991 16.36C167.484 17.1067 168.191 17.48 169.111 17.48C169.777 17.48 170.324 17.2733 170.751 16.86C171.191 16.4333 171.464 15.8533 171.571 15.12H173.851C173.411 17.8933 171.831 19.28 169.111 19.28C167.537 19.28 166.297 18.7667 165.391 17.74C164.524 16.78 164.091 15.5133 164.091 13.94C164.091 12.3 164.517 10.98 165.371 9.98C166.277 8.91333 167.551 8.38 169.191 8.38C170.457 8.38 171.504 8.68667 172.331 9.3C173.237 9.96667 173.744 10.9067 173.851 12.12ZM180.444 17.48C181.404 17.48 182.151 17.0933 182.684 16.32C183.151 15.6533 183.384 14.82 183.384 13.82C183.384 12.8333 183.151 12.0067 182.684 11.34C182.151 10.5667 181.404 10.18 180.444 10.18C179.484 10.18 178.737 10.5667 178.204 11.34C177.737 12.0067 177.504 12.8333 177.504 13.82C177.504 14.82 177.737 15.6533 178.204 16.32C178.737 17.0933 179.484 17.48 180.444 17.48ZM180.444 19.28C178.817 19.28 177.531 18.7667 176.584 17.74C175.677 16.7533 175.224 15.4467 175.224 13.82C175.224 12.2067 175.684 10.9 176.604 9.9C177.537 8.88667 178.817 8.38 180.444 8.38C182.071 8.38 183.357 8.89333 184.304 9.92C185.211 10.9067 185.664 12.2067 185.664 13.82C185.664 15.4467 185.211 16.7533 184.304 17.74C183.357 18.7667 182.071 19.28 180.444 19.28ZM189.339 13.94C189.339 14.9133 189.566 15.7267 190.019 16.38C190.539 17.1133 191.266 17.48 192.199 17.48C193.146 17.48 193.886 17.0933 194.419 16.32C194.873 15.6533 195.099 14.82 195.099 13.82C195.099 12.6867 194.839 11.8 194.319 11.16C193.813 10.5067 193.119 10.18 192.239 10.18C191.253 10.18 190.499 10.5733 189.979 11.36C189.553 12.0267 189.339 12.8867 189.339 13.94ZM197.299 4.72V19H195.139V17.6H195.099C194.526 18.72 193.459 19.28 191.899 19.28C190.326 19.28 189.113 18.7467 188.259 17.68C187.459 16.6933 187.059 15.3867 187.059 13.76C187.059 12 187.526 10.6333 188.459 9.66C189.273 8.80667 190.299 8.38 191.539 8.38C193.166 8.38 194.313 8.92 194.979 10H195.019V4.72H197.299ZM209.166 14.42H201.566C201.566 15.2867 201.793 16 202.246 16.56C202.739 17.1733 203.439 17.48 204.346 17.48C205.626 17.48 206.466 16.9067 206.866 15.76H209.026C208.786 16.8667 208.233 17.7333 207.366 18.36C206.513 18.9733 205.506 19.28 204.346 19.28C202.759 19.28 201.519 18.78 200.626 17.78C199.733 16.78 199.286 15.4667 199.286 13.84C199.286 12.32 199.733 11.04 200.626 10C201.573 8.92 202.793 8.38 204.286 8.38C205.739 8.38 206.933 8.91333 207.866 9.98C208.759 10.98 209.206 12.2067 209.206 13.66C209.206 13.9133 209.193 14.1667 209.166 14.42ZM201.566 12.92H206.886C206.846 12.16 206.586 11.5133 206.106 10.98C205.639 10.4467 205.033 10.18 204.286 10.18C203.513 10.18 202.873 10.44 202.366 10.96C201.859 11.48 201.593 12.1333 201.566 12.92Z" fill="white"/>
</svg>
