<svg width="25" height="26" viewBox="0 0 25 26" fill="none" xmlns="http://www.w3.org/2000/svg">
<path fill-rule="evenodd" clip-rule="evenodd" d="M16.5483 10.3026C16.5483 14.0677 13.5072 17.1051 9.77417 17.1051C6.0411 17.1051 3 14.0677 3 10.3026C3 6.5374 6.0411 3.5 9.77417 3.5C13.5072 3.5 16.5483 6.5374 16.5483 10.3026ZM15.0139 18.579C13.4996 19.5453 11.702 20.1051 9.77417 20.1051C4.37604 20.1051 0 15.7164 0 10.3026C0 4.88876 4.37604 0.5 9.77417 0.5C15.1723 0.5 19.5483 4.88876 19.5483 10.3026C19.5483 12.6971 18.6922 14.8912 17.2702 16.5936L23.4844 22.8511L21.3704 24.9797L15.0139 18.579Z" fill="#989391"/>
</svg>
