<svg width="95" height="36" viewBox="0 0 95 36" fill="none" xmlns="http://www.w3.org/2000/svg">
<rect x="0.939636" y="1" width="93" height="34" rx="3.5" fill="#008CBA"/>
<path d="M24.9016 19.668H26.6516C26.6516 20.396 26.899 20.9467 27.3936 21.32C27.8323 21.6467 28.4296 21.81 29.1856 21.81C29.9043 21.81 30.4503 21.6513 30.8236 21.334C31.141 21.0633 31.2996 20.718 31.2996 20.298C31.2996 19.682 31.0243 19.2713 30.4736 19.066C30.399 19.038 29.405 18.7627 27.4916 18.24C26.017 17.8387 25.2796 16.994 25.2796 15.706C25.2796 14.7633 25.6623 14.0213 26.4276 13.48C27.109 13.004 27.9443 12.766 28.9336 12.766C30.0256 12.766 30.9263 13.0367 31.6356 13.578C32.3916 14.166 32.7696 14.9593 32.7696 15.958H31.0196C30.945 14.782 30.2263 14.194 28.8636 14.194C28.3783 14.194 27.9723 14.2827 27.6456 14.46C27.235 14.6933 27.0296 15.0387 27.0296 15.496C27.0296 16.14 27.4263 16.5693 28.2196 16.784C29.013 16.9893 29.9743 17.246 31.1036 17.554C31.729 17.7407 32.219 18.086 32.5736 18.59C32.891 19.0473 33.0496 19.5513 33.0496 20.102C33.0496 21.1473 32.6343 21.95 31.8036 22.51C31.085 22.9953 30.175 23.238 29.0736 23.238C27.8603 23.238 26.885 22.9533 26.1476 22.384C25.3356 21.7587 24.9203 20.8533 24.9016 19.668ZM40.9238 19.794H35.6038C35.6038 20.4007 35.7624 20.9 36.0798 21.292C36.4251 21.7213 36.9151 21.936 37.5498 21.936C38.4458 21.936 39.0338 21.5347 39.3138 20.732H40.8258C40.6578 21.5067 40.2704 22.1133 39.6638 22.552C39.0664 22.9813 38.3618 23.196 37.5498 23.196C36.4391 23.196 35.5711 22.846 34.9458 22.146C34.3204 21.446 34.0078 20.5267 34.0078 19.388C34.0078 18.324 34.3204 17.428 34.9458 16.7C35.6084 15.944 36.4624 15.566 37.5078 15.566C38.5251 15.566 39.3604 15.9393 40.0138 16.686C40.6391 17.386 40.9518 18.2447 40.9518 19.262C40.9518 19.4393 40.9424 19.6167 40.9238 19.794ZM35.6038 18.744H39.3278C39.2998 18.212 39.1178 17.7593 38.7818 17.386C38.4551 17.0127 38.0304 16.826 37.5078 16.826C36.9664 16.826 36.5184 17.008 36.1638 17.372C35.8091 17.736 35.6224 18.1933 35.6038 18.744ZM46.6031 20.564V19.374C46.3977 19.5047 46.0991 19.6027 45.7071 19.668C45.3524 19.7147 44.9977 19.7613 44.6431 19.808C43.7751 19.9573 43.3411 20.3587 43.3411 21.012C43.3411 21.3293 43.5184 21.572 43.8731 21.74C44.1437 21.8707 44.4564 21.936 44.8111 21.936C45.2404 21.936 45.6277 21.8333 45.9731 21.628C46.3931 21.376 46.6031 21.0213 46.6031 20.564ZM48.1991 17.666V21.39C48.1991 21.754 48.3251 21.936 48.5771 21.936C48.7264 21.936 48.8571 21.9267 48.9691 21.908V23.014C48.6237 23.1353 48.2877 23.196 47.9611 23.196C47.2517 23.196 46.8411 22.902 46.7291 22.314C46.1317 22.902 45.2964 23.196 44.2231 23.196C43.5231 23.196 42.9491 23.0187 42.5011 22.664C41.9971 22.2813 41.7451 21.754 41.7451 21.082C41.7451 20.2793 42.0437 19.7007 42.6411 19.346C43.0051 19.1313 43.6351 18.9587 44.5311 18.828C45.5391 18.6787 46.0431 18.604 46.0431 18.604C46.4817 18.4733 46.7011 18.2073 46.7011 17.806C46.7011 17.1527 46.2017 16.826 45.2031 16.826C44.2044 16.826 43.6724 17.2087 43.6071 17.974H42.0111C42.1044 16.3687 43.2011 15.566 45.3011 15.566C46.0944 15.566 46.7524 15.7247 47.2751 16.042C47.8911 16.4153 48.1991 16.9567 48.1991 17.666ZM49.9164 23V15.762H51.4144V17.162H51.4424C51.5357 16.7607 51.7924 16.3967 52.2124 16.07C52.6324 15.734 53.0804 15.566 53.5564 15.566C53.6777 15.566 53.8784 15.58 54.1584 15.608V17.148C53.785 17.1013 53.5564 17.078 53.4724 17.078C52.903 17.078 52.441 17.2927 52.0864 17.722C51.7037 18.17 51.5124 18.7813 51.5124 19.556V23H49.9164ZM61.3202 18.184H59.7242C59.5936 17.2787 59.0429 16.826 58.0722 16.826C57.5402 16.826 57.1062 16.9893 56.7702 17.316C56.3129 17.764 56.0842 18.478 56.0842 19.458C56.0842 20.1393 56.2289 20.704 56.5182 21.152C56.8636 21.6747 57.3582 21.936 58.0022 21.936C58.4689 21.936 58.8516 21.7913 59.1502 21.502C59.4582 21.2033 59.6496 20.7973 59.7242 20.284H61.3202C61.0122 22.2253 59.9062 23.196 58.0022 23.196C56.9009 23.196 56.0329 22.8367 55.3982 22.118C54.7916 21.446 54.4882 20.5593 54.4882 19.458C54.4882 18.31 54.7869 17.386 55.3842 16.686C56.0189 15.9393 56.9102 15.566 58.0582 15.566C58.9449 15.566 59.6776 15.7807 60.2562 16.21C60.8909 16.6767 61.2456 17.3347 61.3202 18.184ZM62.6175 23V13.004H64.2135V16.714H64.2415C64.4469 16.378 64.7409 16.1027 65.1235 15.888C65.5155 15.6733 65.9449 15.566 66.4115 15.566C67.2142 15.566 67.8395 15.776 68.2875 16.196C68.7449 16.616 68.9735 17.2273 68.9735 18.03V23H67.3775V18.45C67.3775 17.3673 66.9062 16.826 65.9635 16.826C65.4409 16.826 65.0162 17.008 64.6895 17.372C64.3722 17.736 64.2135 18.1887 64.2135 18.73V23H62.6175Z" fill="white"/>
<rect x="0.939636" y="1" width="93" height="34" rx="3.5" stroke="white"/>
</svg>
